# xmcd
#
# Track frame offsets: 
#        150
#        12420
#        22680
#        36653
#        49655
#        64728
#        76680
#        89953
#        104608
#        119380
#        130570
#        143310
#        156028
#        169760
#        182955
#        195845
#        207263
#        220570
#
# Disc length: 3116 seconds
#
# Revision: 2
# Processed by: cddbd v1.5PL3 Copyright (c) Steve Scherf et al.
# Submitted via: ExactAudioCopy v0.95a3
#
DISCID=eb0c2a12
DTITLE=Muddy Waters - The Original Rollin' Stone
DYEAR=1995
DGENRE=Blues
TTITLE0=I Can't Be Satisfied
TTITLE1=Mean Red Spider
TTITLE2=Rollin' Stone
TTITLE3=Louisiana Blues
TTITLE4=Honey Bee
TTITLE5=Long Distance Call
TTITLE6=She Moves Me
TTITLE7=Still A Fool
TTITLE8=Baby Please Don't Go
TTITLE9=I Want To Be Loved
TTITLE10=I'm Your Hoochie Coochie Man
TTITLE11=I Just Want To Make Love To You
TTITLE12=I'm Ready
TTITLE13=Mannish Boy
TTITLE14=Got My Mojo Working
TTITLE15=Twenty Four Hours
TTITLE16=You Can't Lose What You Ain't Never Had
TTITLE17=I Got A Rich Man's Woman
EXTD=
EXTT0=McKinley Morganfield
EXTT1=McKinley Morganfield
EXTT2=McKinley Morganfield
EXTT3=McKinley Morganfield
EXTT4=McKinley Morganfield
EXTT5=McKinley Morganfield
EXTT6=McKinley Morganfield
EXTT7=McKinley Morganfield
EXTT8=McKinley Morganfield
EXTT9=McKinley Morganfield
EXTT10=Willie Dixon
EXTT11=Willie Dixon
EXTT12=Willie Dixon
EXTT13=Elias Mc Daniel
EXTT14=McKinley Morganfield
EXTT15=E. Boyd
EXTT16=McKinley Morganfield
EXTT17=L.J. Welch
PLAYORDER=
